<?xml version="1.0" encoding="utf-8"?>
<!-- Generator: Adobe Illustrator 22.0.1, SVG Export Plug-In . SVG Version: 6.00 Build 0)  -->
<svg version="1.1" id="Layer_1" xmlns="http://www.w3.org/2000/svg" xmlns:xlink="http://www.w3.org/1999/xlink" x="0px" y="0px"
	 viewBox="0 0 347.9101562 165.1430664" style="enable-background:new 0 0 347.9101562 165.1430664;" xml:space="preserve">
<style type="text/css">
	.st0{fill:#FFFFFF;}
</style>
<g>
	<path class="st0" d="M21.4863281,49.6469727c0-3.2436523-2.4462891-7.4345703-7.3398438-12.5732422l-0.9365234-0.9042969
		c-5.2314453-5.0517578-8.5898438-8.934082-10.0761719-11.6455078s-2.2294922-5.5874023-2.2294922-8.628418
		c0-4.3935547,1.4951172-8.0913086,4.4853516-11.0922852c2.9912109-3.0009766,6.4951172-4.5019531,10.5126953-4.5019531
		c4.0185547,0,7.3564453,1.3862305,10.0166016,4.1572266c2.6601562,2.7719727,4.1826172,6.5268555,4.5673828,11.265625l-9,1.3271484
		c-0.1816406-2.769043-0.7128906-4.753418-1.59375-5.9521484c-0.8818359-1.1987305-2.171875-1.7983398-3.8730469-1.7983398
		s-3.0449219,0.5214844-4.0322266,1.5629883C11,11.9057617,10.5068359,13.2978516,10.5068359,15.0390625
		c0,3.6142578,3.2001953,8.3325195,9.6005859,14.1547852c4.6064453,4.9086914,7.5888672,8.6699219,8.9453125,11.2817383
		c1.3574219,2.6123047,2.0361328,5.6123047,2.0361328,8.9990234c0,4.5361328-1.4453125,8.2607422-4.3369141,11.1738281
		c-2.890625,2.9140625-6.5673828,4.3706055-11.0292969,4.3706055s-8.1376953-1.5209961-11.0292969-4.5639648
		C1.8017578,57.4125977,0.2373047,53.1928711,0,47.7954102l8.8271484-1.3779297
		c0.3916016,6.1723633,2.8017578,9.2578125,7.2324219,9.2578125c1.6103516,0,2.9179688-0.5522461,3.921875-1.6577148
		C20.9853516,52.9125977,21.4863281,51.4555664,21.4863281,49.6469727z"/>
	<path class="st0" d="M48.2285156,48.0107422v1.2055664c0.2304688-6.2001953,0.4902344-10.2763672,0.7783203-12.2285156
		l4.7998047-35.652832h8.6542969l5.1035156,36.8583984c0.4287109,3.0717773,0.6425781,6.7460938,0.6425781,11.0229492
		c0-3.7314453,0.2578125-7.8076172,0.7724609-12.2285156l3.9453125-35.652832h8.8271484l-9.4277344,62.2631836h-8.0185547
		l-5.4550781-36.1264648c-0.4482422-3.0141602-0.6708984-6.7026367-0.6708984-11.0664062
		c-0.3652344,6.7753906-0.6367188,10.8510742-0.8154297,12.2290039l-5.3310547,34.9638672h-8.0419922L34.515625,1.3349609h8.8271484
		l4.2802734,36.9013672C48.0263672,41.9682617,48.2285156,45.2265625,48.2285156,48.0107422z"/>
	<path class="st0" d="M88.1591797,63.5981445V1.3349609h9.7744141v62.2631836H88.1591797z"/>
	<path class="st0" d="M106.3457031,63.5981445V1.3349609h14.0810547c5.2529297,0,9.0634766,1.4208984,11.4316406,4.2626953
		s3.5527344,7.3056641,3.5527344,13.3911133c0,6.0864258-1.1484375,10.8081055-3.4453125,14.1665039
		c-2.296875,3.3588867-5.4394531,5.0380859-9.4296875,5.0380859h-6.5878906v25.4047852H106.3457031z M115.9482422,29.3662109
		h3.7890625c2.2392578,0,3.7822266-0.6816406,4.6289062-2.0454102c0.8466797-1.362793,1.2705078-3.8818359,1.2705078-7.5566406
		c0-3.6743164-0.4453125-6.1640625-1.3349609-7.4707031c-0.8896484-1.3061523-2.5263672-1.9594727-4.9091797-1.9594727h-3.4443359
		V29.3662109z"/>
	<path class="st0" d="M142.2783203,63.5981445V1.3349609h25.0166016v8.9990234h-15.4150391v16.3193359h11.109375v8.9995117
		h-11.109375v18.6015625h15.4150391v9.34375H142.2783203z"/>
	<path class="st0" d="M189.8339844,10.3339844V1.3349609h29.5380859v8.9990234h-9.9892578v53.2641602h-9.6025391V10.3339844
		H189.8339844z"/>
	<path class="st0" d="M224.5234375,15.7163086c0-4.9086914,1.3349609-8.7548828,4.0048828-11.5395508
		C231.1972656,1.3925781,234.8251953,0,239.4121094,0C244,0,247.5732422,1.4282227,250.1347656,4.2841797
		c2.5605469,2.8569336,3.8408203,6.7539062,3.8408203,11.6904297v31.9072266c0,5.4541016-1.2734375,9.659668-3.8193359,12.6162109
		c-2.5478516,2.9570312-6.2001953,4.4350586-10.9589844,4.4350586c-4.7597656,0-8.3945312-1.4707031-10.90625-4.4135742
		c-2.5117188-2.9423828-3.7675781-7.2407227-3.7675781-12.8964844V15.7163086z M239.25,56.3212891
		c3.3007812,0,4.9511719-2.1669922,4.9511719-6.5019531V15.0708008c0-4.3061523-1.6503906-6.4589844-4.9511719-6.4589844
		c-3.3017578,0-4.9521484,2.152832-4.9521484,6.4589844v34.7485352
		C234.2978516,54.1542969,235.9482422,56.3212891,239.25,56.3212891z"/>
	<path class="st0" d="M2.9287109,163.8081055v-62.2636719h9.6015625v53.2646484h14.8125v8.9990234H2.9287109z"/>
	<path class="st0" d="M33.6513672,163.8081055v-62.2636719h25.0166016v9H43.2529297v16.3193359h11.109375v8.9990234h-11.109375
		v18.6015625h15.4150391v9.34375H33.6513672z"/>
	<path class="st0" d="M63.8955078,163.8081055l10.2480469-62.2636719h12.5302734l10.2050781,62.2636719h-9.8603516
		l-1.9375-13.4775391h-9.6884766l-2.0673828,13.4775391H63.8955078z M76.5976562,141.503418h7.3203125l-3.2724609-26.0078125
		h-0.6025391L76.5976562,141.503418z"/>
	<path class="st0" d="M112.7617188,137.628418v26.1796875h-9.6025391v-62.2636719h14.0810547
		c5.28125,0,9.0996094,1.4208984,11.453125,4.2626953c2.3535156,2.8427734,3.53125,7.421875,3.53125,13.7363281
		c0,3.8779297-0.4384766,7.0136719-1.3144531,9.4091797c-0.8759766,2.3945312-2.3076172,4.3330078-4.2978516,5.8154297
		l6.6025391,29.0400391h-9.9345703l-5.9541016-26.1796875H112.7617188z M112.7617188,110.5444336v18.0839844h3.7890625
		c2.2099609,0,3.7460938-0.6669922,4.6074219-2.0019531s1.2919922-3.7246094,1.2919922-7.1689453
		c0-3.4453125-0.4521484-5.7919922-1.3564453-7.0400391c-0.9042969-1.2490234-2.5341797-1.8730469-4.8876953-1.8730469H112.7617188z
		"/>
	<path class="st0" d="M148.9433594,131.2553711v32.5527344h-8.8271484v-62.2636719h8.5253906l12.2050781,37.203125
		c0.5166016,1.6367188,1.1347656,3.8476562,1.8544922,6.6308594c-0.7041016-4.1044922-1.0556641-6.9033203-1.0556641-8.3964844
		v-35.4375h8.8271484v62.2636719h-8.8271484l-11.7402344-34.4042969c-0.7197266-1.7792969-1.3964844-4.0322266-2.0283203-6.7597656
		C148.5869141,127.1791992,148.9433594,130.050293,148.9433594,131.2553711z"/>
	<path class="st0" d="M209.890625,124.5053711v39.3027344h-8.8271484v-62.2636719h12.7880859l6.2421875,34.4902344
		c0.4882812,2.7558594,0.7333984,5.8710938,0.7333984,9.34375c0-2.6123047,0.3115234-5.6992188,0.9345703-9.2597656
		l5.9980469-34.5742188h12.7880859v62.2636719h-8.8271484v-39.2236328c0-2.2910156,0.5126953-5.9003906,1.5380859-10.8261719
		c-0.1445312,0.8486328-0.3896484,2.328125-0.7353516,4.4384766c-0.3447266,2.109375-0.6015625,3.5732422-0.7685547,4.3886719
		l-8.6884766,41.2226562h-4.7792969l-7.5224609-41.3662109c-0.2861328-1.6689453-0.5908203-3.4951172-0.9150391-5.4775391
		c-0.3251953-1.9833984-0.5214844-3.0849609-0.5878906-3.3076172
		C209.6806641,118.2202148,209.890625,121.8364258,209.890625,124.5053711z"/>
	<path class="st0" d="M248.5283203,115.9262695c0-4.9082031,1.3349609-8.7548828,4.0048828-11.5400391
		c2.6689453-2.7832031,6.296875-4.1767578,10.8837891-4.1767578c4.5878906,0,8.1611328,1.4287109,10.7226562,4.2851562
		c2.5605469,2.8564453,3.8408203,6.7529297,3.8408203,11.6904297v31.90625c0,5.4550781-1.2734375,9.6601562-3.8193359,12.6162109
		c-2.5478516,2.9570312-6.2001953,4.4355469-10.9589844,4.4355469c-4.7597656,0-8.3945312-1.4707031-10.90625-4.4140625
		c-2.5117188-2.9414062-3.7675781-7.2402344-3.7675781-12.8955078V115.9262695z M263.2548828,156.5307617
		c3.3007812,0,4.9511719-2.1669922,4.9511719-6.5019531v-34.7480469c0-4.3056641-1.6503906-6.4589844-4.9511719-6.4589844
		c-3.3017578,0-4.9521484,2.1533203-4.9521484,6.4589844v34.7480469
		C258.3027344,154.3637695,259.953125,156.5307617,263.2548828,156.5307617z"/>
	<path class="st0" d="M295.5390625,137.628418v26.1796875h-9.6025391v-62.2636719h14.0810547
		c5.28125,0,9.0996094,1.4208984,11.453125,4.2626953c2.3535156,2.8427734,3.53125,7.421875,3.53125,13.7363281
		c0,3.8779297-0.4384766,7.0136719-1.3144531,9.4091797c-0.8759766,2.3945312-2.3076172,4.3330078-4.2978516,5.8154297
		l6.6025391,29.0400391h-9.9345703l-5.9541016-26.1796875H295.5390625z M295.5390625,110.5444336v18.0839844h3.7890625
		c2.2099609,0,3.7460938-0.6669922,4.6074219-2.0019531s1.2919922-3.7246094,1.2919922-7.1689453
		c0-3.4453125-0.4521484-5.7919922-1.3564453-7.0400391c-0.9042969-1.2490234-2.5341797-1.8730469-4.8876953-1.8730469H295.5390625z
		"/>
	<path class="st0" d="M322.8935547,163.8081055v-62.2636719h25.0166016v9h-15.4150391v16.3193359h11.109375v8.9990234h-11.109375
		v18.6015625h15.4150391v9.34375H322.8935547z"/>
</g>
</svg>
