<?xml version="1.0" encoding="UTF-8"?>
<svg id="Layer_1" xmlns="http://www.w3.org/2000/svg" version="1.1" viewBox="0 0 258.4 14">
  <!-- Generator: Adobe Illustrator 29.0.1, SVG Export Plug-In . SVG Version: 2.1.0 Build 192)  -->
  <defs>
    <style>
      .st0 {
        fill: #fff;
      }
    </style>
  </defs>
  <path class="st0" d="M10.9.1v13.7h-2.4v-5.8H2.4v5.8H0V.1h2.4v5.7h6.1V.1h2.4Z"/>
  <path class="st0" d="M16.7,12.8c-1-.8-1.4-1.9-1.4-3.4v-4.9c0-1.5.5-2.6,1.5-3.4,1-.8,2.3-1.2,4-1.2s3,.4,4,1.2c1,.8,1.5,1.9,1.5,3.4v4.9c0,1.5-.5,2.6-1.5,3.4-1,.8-2.3,1.2-4,1.2s-3-.4-4-1.2h-.1ZM23,11c.4-.5.7-1.1.7-1.9v-4.2c0-.9-.2-1.5-.7-1.9s-1.2-.7-2.4-.7-2,.2-2.4.7-.6,1.1-.6,1.9v4.2c0,.9.2,1.5.7,1.9.4.4,1.2.7,2.4.7s1.9-.2,2.4-.7h-.1Z"/>
  <path class="st0" d="M40.7.1l-4.8,13.7h-2.6L28.6.1h2.5l3.6,10.5L38.3.1h2.4Z"/>
  <path class="st0" d="M46.4,2.3v3.6h6v2.2h-6v3.7h6.4v2.2h-8.8V.1h8.8v2.2h-6.4Z"/>
  <path class="st0" d="M64,8.8l3.1,5.1h-2.8l-2.8-4.8h-2.2v4.8h-2.4V.1h4.3c2,0,3.5.3,4.4,1,.9.7,1.4,1.8,1.4,3.3,0,2.3-1,3.7-3.1,4.3h.1ZM59.3,6.9h2.1c1.2,0,2.1-.2,2.6-.6.5-.4.7-1,.7-1.8s-.3-1.3-.8-1.7-1.4-.5-2.7-.5h-1.9s0,4.6,0,4.6Z"/>
  <path class="st0" d="M85.8,2.3h-4.2v11.6h-2.4V2.3h-4.2V.1h10.7v2.2h0Z"/>
  <path class="st0" d="M89.7,12.8c-1-.8-1.4-1.9-1.4-3.4v-4.9c0-1.5.5-2.6,1.5-3.4s2.3-1.2,4-1.2,3,.4,4,1.2c1,.8,1.5,1.9,1.5,3.4v4.9c0,1.5-.5,2.6-1.5,3.4-1,.8-2.3,1.2-4,1.2s-3-.4-4-1.2h0ZM96.1,11c.4-.5.7-1.1.7-1.9v-4.2c0-.9-.2-1.5-.7-1.9s-1.2-.7-2.4-.7-2,.2-2.4.7-.6,1.1-.6,1.9v4.2c0,.9.2,1.5.7,1.9.4.4,1.2.7,2.4.7s1.9-.2,2.4-.7h0Z"/>
  <path class="st0" d="M111.2,2.3v3.6h6v2.2h-6v3.7h6.4v2.2h-8.8V.1h8.8v2.2h-6.4Z"/>
  <path class="st0" d="M127.4,7l4.2,6.9h-2.6l-2.9-4.8-2.9,4.8h-2.5l4.2-6.8L120.6.1h2.6l2.9,4.8,2.9-4.8h2.5l-4.2,6.8h0Z"/>
  <path class="st0" d="M144,1.2c.9.7,1.3,1.8,1.3,3.3s-.4,2.8-1.3,3.5c-.9.7-2.2,1.1-4.1,1.1h-2.4v4.8h-2.4V.1h4.6c2,0,3.4.3,4.3,1h0ZM141.7,6.6c.4,0,.8-.4.9-.7.2-.3.3-.8.3-1.4s-.2-1.4-.7-1.7-1.3-.5-2.6-.5h-2.1v4.6h2.2c.8,0,1.5,0,1.9-.2h.1Z"/>
  <path class="st0" d="M155.5,11h-5.7l-1,2.8h-2.4L151.8.1h1.8l5.4,13.7h-2.5l-1-2.8ZM154.8,9l-2.1-5.6h0l-2.1,5.6h4.2Z"/>
  <path class="st0" d="M174,.1v13.7h-2l-7.2-9.7v9.7h-2.2V.1h2l7.2,9.8V.1h2.2Z"/>
  <path class="st0" d="M188,1.4c1,.9,1.6,2.3,1.6,4.4v2.2c0,1.8-.5,3.2-1.4,4.3-.9,1-2.2,1.6-3.9,1.6h-5.6V.1h5.1c1.9,0,3.3.4,4.3,1.3h-.1ZM187,5.8c0-2.4-1.2-3.5-3.7-3.5h-2.4v9.4h2.6c1.2,0,2-.3,2.6-.9s.8-1.5.8-2.8v-2.2h0Z"/>
  <path class="st0" d="M207,11h-5.7l-1,2.8h-2.4L203.3.1h1.8l5.4,13.7h-2.5l-1-2.8ZM206.2,9l-2.1-5.6h0l-2.1,5.6h4.2Z"/>
  <path class="st0" d="M223.5,1.4c1,.9,1.6,2.3,1.6,4.4v2.2c0,1.8-.5,3.2-1.4,4.3-.9,1-2.2,1.6-3.9,1.6h-5.6V.1h5.1c1.9,0,3.3.4,4.3,1.3h-.1ZM222.5,5.8c0-2.4-1.2-3.5-3.7-3.5h-2.4v9.4h2.6c1.2,0,2-.3,2.6-.9.5-.6.8-1.5.8-2.8v-2.2h0Z"/>
  <path class="st0" d="M252.2,9.9l-6-4.9-6,4.9c-.4.3-.9.3-1.2-.1l-.7-.8c-.3-.4-.3-.9.1-1.2l7.8-6.4,7.8,6.4c.4.3.4.9.1,1.2l-.7.8c-.3.4-.9.4-1.2.1h0Z"/>
</svg>